<?xml version="1.0" standalone="no"?>
<!DOCTYPE svg PUBLIC "-//W3C//DTD SVG 20010904//EN"
 "http://www.w3.org/TR/2001/REC-SVG-20010904/DTD/svg10.dtd">
<svg version="1.0" xmlns="http://www.w3.org/2000/svg"
 width="708.000000pt" height="708.000000pt" viewBox="0 0 708.000000 708.000000"
 preserveAspectRatio="xMidYMid meet">
<metadata>
Created by potrace 1.14, written by Peter Selinger 2001-2017
</metadata>
<g transform="translate(0.000000,708.000000) scale(0.100000,-0.100000)"
fill="#000000" stroke="none">
<path d="M4961 7004 c-56 -35 -104 -64 -106 -64 -3 0 -126 -73 -185 -110 -61
-38 -210 -127 -233 -140 -43 -23 -189 -110 -217 -129 -14 -9 -46 -28 -72 -41
-27 -14 -48 -28 -48 -32 0 -5 -5 -8 -10 -8 -6 0 -51 -24 -100 -52 -50 -29
-103 -60 -118 -68 -16 -9 -70 -39 -120 -68 -51 -29 -96 -52 -102 -52 -5 0 -10
-3 -10 -8 0 -4 -21 -18 -47 -30 -27 -13 -68 -35 -93 -49 -25 -14 -67 -37 -95
-51 -27 -14 -62 -34 -77 -44 -16 -11 -28 -17 -28 -14 0 4 -17 -4 -37 -17 -34
-21 -106 -60 -363 -194 -41 -22 -138 -73 -215 -113 -77 -41 -150 -79 -162 -85
-13 -5 -23 -14 -23 -18 0 -10 71 -179 80 -190 6 -7 56 11 90 33 8 5 33 18 55
28 22 10 122 60 222 110 100 51 185 92 190 92 9 0 8 -3380 -1 -3540 -5 -90
-11 -156 -22 -252 -3 -24 -6 -57 -8 -75 -7 -56 -38 -126 -93 -205 -56 -82 -59
-88 -43 -88 6 0 20 -9 32 -20 27 -25 34 -25 116 2 37 12 69 23 72 23 22 3 156
51 158 57 2 5 7 6 11 3 14 -8 235 110 312 166 84 63 195 168 256 244 70 87
166 249 178 300 1 6 5 17 8 25 8 22 31 93 33 105 1 6 6 35 13 65 12 62 19 116
27 210 4 36 8 853 10 1815 2 963 3 1757 4 1765 0 8 18 23 41 33 l40 17 92 -77
c50 -43 98 -84 106 -91 59 -56 234 -144 431 -218 85 -32 157 -59 159 -60 7 -6
2 -4887 -6 -4895 -8 -8 -211 -64 -268 -74 -16 -2 -41 -7 -55 -10 -126 -25
-592 -26 -760 -1 -14 2 -50 7 -80 10 -45 6 -113 18 -220 41 -19 4 -102 25
-115 29 -5 2 -23 6 -40 11 -39 10 -201 64 -242 82 -18 7 -34 13 -35 13 -2 -1
-45 19 -96 44 -51 26 -95 46 -97 46 -3 0 -34 18 -70 40 -36 22 -70 40 -75 40
-6 0 -10 5 -10 10 0 6 -5 10 -11 10 -12 0 -173 108 -204 138 -12 10 -26 21
-32 23 -41 15 -312 281 -407 399 -149 185 -312 467 -395 680 -18 47 -36 94
-41 105 -4 11 -8 23 -9 28 0 4 -7 23 -15 42 -9 20 -15 36 -14 38 0 1 -10 35
-22 76 -12 41 -24 83 -26 95 -5 22 -17 74 -35 154 -6 26 -12 56 -14 67 -2 11
-6 34 -10 50 -8 39 -31 201 -41 285 -9 87 -10 501 0 620 12 160 35 344 53 425
2 11 6 31 8 45 9 62 17 99 41 189 14 53 30 110 34 126 14 53 70 223 87 262 9
21 17 43 19 48 14 73 275 562 305 573 5 2 9 9 9 14 0 6 18 35 40 64 22 29 40
57 40 63 0 5 4 11 8 13 5 2 33 34 63 73 233 300 535 571 856 768 l83 50 -30
51 c-17 28 -34 57 -39 64 -8 15 -22 10 -181 -58 -36 -15 -90 -38 -120 -51 -98
-42 -321 -159 -418 -220 -52 -32 -98 -59 -102 -59 -5 0 -10 -3 -12 -7 -1 -5
-42 -35 -91 -67 -48 -33 -95 -67 -105 -76 -9 -8 -30 -24 -47 -34 -16 -11 -34
-25 -38 -33 -4 -7 -14 -13 -22 -13 -7 0 -15 -4 -17 -9 -1 -5 -35 -35 -73 -67
-189 -158 -434 -407 -560 -568 -16 -22 -51 -64 -76 -95 -25 -31 -56 -72 -69
-91 -13 -19 -27 -37 -30 -40 -15 -14 -60 -80 -60 -88 0 -6 -4 -12 -8 -14 -15
-6 -152 -222 -242 -383 -31 -54 -150 -293 -150 -300 0 -3 -11 -28 -25 -57 -14
-28 -25 -57 -25 -62 0 -6 -6 -23 -14 -37 -24 -47 -105 -291 -130 -394 -1 -5
-5 -19 -9 -30 -3 -11 -8 -31 -11 -45 -3 -14 -12 -56 -20 -95 -8 -38 -17 -83
-20 -100 -3 -16 -8 -39 -10 -50 -4 -22 -17 -114 -22 -160 -15 -138 -18 -200
-18 -415 -1 -256 6 -354 34 -520 5 -30 12 -71 15 -91 3 -19 19 -89 36 -155 16
-65 32 -126 34 -134 2 -12 44 -136 79 -235 43 -125 146 -339 233 -483 35 -58
63 -107 63 -109 0 -2 5 -9 10 -16 6 -7 42 -57 81 -112 210 -295 543 -619 844
-821 321 -216 659 -372 975 -449 45 -11 170 -37 200 -41 19 -3 46 -7 60 -10
70 -13 178 -18 405 -18 248 -1 335 4 520 28 243 32 547 113 763 202 128 53
393 190 400 207 2 4 8 7 13 7 19 0 285 183 404 277 177 141 388 347 530 518
28 33 55 65 60 71 6 6 19 23 30 38 11 16 25 33 31 40 15 16 199 287 208 306 3
8 31 56 61 105 l54 90 -45 42 -44 43 -153 -153 c-83 -84 -170 -168 -192 -187
-47 -42 -233 -188 -265 -210 -12 -8 -41 -29 -64 -46 -79 -58 -242 -155 -346
-205 -58 -28 -117 -57 -132 -65 -14 -8 -31 -14 -36 -14 -6 0 -10 827 -9 2395
l0 2394 31 10 c17 6 63 17 101 26 151 33 352 112 490 193 94 54 243 170 325
252 99 100 145 160 122 160 -4 0 -13 13 -20 29 l-13 29 -72 -27 c-40 -15 -75
-28 -79 -29 -5 -1 -9 -2 -10 -3 -2 0 -10 -2 -18 -4 -271 -63 -495 -10 -751
180 -92 69 -233 204 -309 298 -25 31 -50 58 -56 60 -5 3 -56 -24 -113 -59z"/>
</g>
</svg>
